<?xml version="1.0" encoding="UTF-8" standalone="no" ?>
<!DOCTYPE svg PUBLIC "-//W3C//DTD SVG 1.1//EN" "http://www.w3.org/Graphics/SVG/1.1/DTD/svg11.dtd">
<svg xmlns="http://www.w3.org/2000/svg" xmlns:xlink="http://www.w3.org/1999/xlink" version="1.1" width="500" height="500" viewBox="0 0 500 500" xml:space="preserve">
<desc>Created with Fabric.js 4.6.0</desc>
<defs>
</defs>
<g transform="matrix(1.02 0 0 0.9 262.14 226.07)" id="57b4hXcQcU_Ney9MZNw1E"  >
<path style="stroke: rgb(207,21,219); stroke-width: 0; stroke-dasharray: none; stroke-linecap: butt; stroke-dashoffset: 0; stroke-linejoin: miter; stroke-miterlimit: 4; fill: rgb(0,0,0); fill-opacity: 0.25; fill-rule: nonzero; opacity: 1;" vector-effect="non-scaling-stroke"  transform=" translate(0, 0)" d="M -85.5 -85.5 L 85.5 -85.5 L 85.5 85.5 L -85.5 85.5 z" stroke-linecap="round" />
</g>
<g transform="matrix(1 0 0 1 262.14 226.07)" id="gjC479v5z20ASh23dTejE"  >
<path style="stroke: rgb(0,0,0); stroke-width: 1; stroke-dasharray: none; stroke-linecap: butt; stroke-dashoffset: 0; stroke-linejoin: miter; stroke-miterlimit: 4; fill: rgb(255,255,255); fill-opacity: 0; fill-rule: nonzero; opacity: 1;" vector-effect="non-scaling-stroke"  transform=" translate(0, 0)" d="M 67.28951 76.95 L 86.61049 63.93781 L 86.61049 -76.95 L 67.28951 -76.95 L -86.61049 -76.95 L -86.61049 76.95 z" stroke-linecap="round" />
</g>
<g transform="matrix(1 0 0 1 329.43 226.07)" id="AMqI1WVWSiNIdo50tevxd"  >
<path style="stroke: rgb(0,0,0); stroke-width: 1; stroke-dasharray: none; stroke-linecap: butt; stroke-dashoffset: 0; stroke-linejoin: miter; stroke-miterlimit: 4; fill: rgb(255,255,255); fill-opacity: 0; fill-rule: nonzero; opacity: 1;" vector-effect="non-scaling-stroke"  transform=" translate(0, 0)" d="M 0 -76.95 L 0 76.95" stroke-linecap="round" />
</g>
<g transform="matrix(1.06 0.59 -0.59 1.06 367.97 303.02)" id="w1VDh-_KFTObEFZfoH4KX"  >
<path style="stroke: none; stroke-width: 1; stroke-dasharray: none; stroke-linecap: butt; stroke-dashoffset: 0; stroke-linejoin: miter; stroke-miterlimit: 4; fill: rgb(255,255,255); fill-rule: nonzero; opacity: 1;" vector-effect="non-scaling-stroke"  transform=" translate(-40, -40)" d="M 60 40 L 80 80 L 40 80 L 0 80 L 20 40 L 40 0 L 60 40 z" stroke-linecap="round" />
</g>
<g transform="matrix(0.18 0 0 0.36 339.41 268.04)" id="XmN0IZlLsNrJJxHNCYSBl"  >
<path style="stroke: rgb(127,133,82); stroke-width: 0; stroke-dasharray: none; stroke-linecap: butt; stroke-dashoffset: 0; stroke-linejoin: miter; stroke-miterlimit: 4; fill: rgb(0,0,0); fill-rule: nonzero; opacity: 1;" vector-effect="non-scaling-stroke"  transform=" translate(0, 0)" d="M 0 -50 C 27.6 -50 50 -27.6 50 0 C 50 27.6 27.6 50 0 50 C -27.6 50 -50 27.6 -50 0 C -50 -27.6 -27.6 -50 0 -50 z" stroke-linecap="round" />
</g>
<g transform="matrix(0.18 0 0 0.36 339.34 232)" id="85winPErfY72DlDMAl9tP"  >
<path style="stroke: rgb(127,133,82); stroke-width: 0; stroke-dasharray: none; stroke-linecap: butt; stroke-dashoffset: 0; stroke-linejoin: miter; stroke-miterlimit: 4; fill: rgb(0,0,0); fill-rule: nonzero; opacity: 1;" vector-effect="non-scaling-stroke"  transform=" translate(0, 0)" d="M 0 -50 C 27.6 -50 50 -27.6 50 0 C 50 27.6 27.6 50 0 50 C -27.6 50 -50 27.6 -50 0 C -50 -27.6 -27.6 -50 0 -50 z" stroke-linecap="round" />
</g>
<g transform="matrix(0.18 0 0 0.36 339.34 196)" id="iV-Taenze72ljLr1m8xQl"  >
<path style="stroke: rgb(127,133,82); stroke-width: 0; stroke-dasharray: none; stroke-linecap: butt; stroke-dashoffset: 0; stroke-linejoin: miter; stroke-miterlimit: 4; fill: rgb(0,0,0); fill-rule: nonzero; opacity: 1;" vector-effect="non-scaling-stroke"  transform=" translate(0, 0)" d="M 0 -50 C 27.6 -50 50 -27.6 50 0 C 50 27.6 27.6 50 0 50 C -27.6 50 -50 27.6 -50 0 C -50 -27.6 -27.6 -50 0 -50 z" stroke-linecap="round" />
</g>
<g transform="matrix(0.13 0 0 0.13 339.75 159.36)" id="4ELzl3P9F7CHOWyCf2xMH"  >
<g style="" vector-effect="non-scaling-stroke"   >
		<g transform="matrix(1 0 0 1 0 0)" id="7JSS9xBg3_mtzuECelq6k"  >
<path style="stroke: none; stroke-width: 1; stroke-dasharray: none; stroke-linecap: butt; stroke-dashoffset: 0; stroke-linejoin: miter; stroke-miterlimit: 4; fill: rgb(179,181,179); fill-rule: nonzero; opacity: 1;" vector-effect="non-scaling-stroke"  transform=" translate(-40, -40)" d="M 40 0 C 17.9 0 0 17.9 0 40 C 0 62.1 17.9 80 40 80 C 62.1 80 80 62.1 80 40 C 80 17.9 62.1 0 40 0 z" stroke-linecap="round" />
</g>
		<g transform="matrix(1 0 0 1 0 0)" id="bMZGYurS1cYgwPa3sL90R"  >
<path style="stroke: none; stroke-width: 1; stroke-dasharray: none; stroke-linecap: butt; stroke-dashoffset: 0; stroke-linejoin: miter; stroke-miterlimit: 4; fill: rgb(255,255,255); fill-rule: nonzero; opacity: 1;" vector-effect="non-scaling-stroke"  transform=" translate(-40, -40)" d="M 40 6.9 C 21.7 6.9 6.9 21.7 6.9 40 C 6.9 58.3 21.8 73.1 40 73.1 C 58.2 73.1 73.1 58.3 73.1 40 C 73.1 21.7 58.3 6.9 40 6.9 z" stroke-linecap="round" />
</g>
		<g transform="matrix(1 0 0 1 0 0.32)" id="hUYYiDtTf0x4LOwATBmsZ"  >
<path style="stroke: none; stroke-width: 1; stroke-dasharray: none; stroke-linecap: butt; stroke-dashoffset: 0; stroke-linejoin: miter; stroke-miterlimit: 4; fill: rgb(179,181,179); fill-rule: nonzero; opacity: 1;" vector-effect="non-scaling-stroke"  transform=" translate(-40, -40.32)" d="M 66.5 39.4 C 66.5 54 54.6 65.8 40 65.8 C 25.4 65.8 13.5 53.9 13.5 39.3 C 13.5 30.799999999999997 17.6 22.799999999999997 24.4 17.9 C 25.9 16.799999999999997 27.4 15.899999999999999 29.099999999999998 15.2 C 30.799999999999997 14.399999999999999 32.9 15.2 33.599999999999994 16.9 C 34.29999999999999 18.599999999999998 33.599999999999994 20.7 31.899999999999995 21.4 C 30.699999999999996 21.9 29.499999999999996 22.599999999999998 28.399999999999995 23.4 C 23.299999999999997 27.099999999999998 20.299999999999997 33 20.299999999999997 39.3 C 20.4 50.2 29.2 59 40 59 C 50.8 59 59.6 50.2 59.6 39.4 C 59.6 33.1 56.5 27.099999999999998 51.3 23.4 C 50.199999999999996 22.599999999999998 49 21.9 47.8 21.4 C 46.099999999999994 20.599999999999998 45.3 18.599999999999998 46 16.9 C 46.8 15.2 48.8 14.399999999999999 50.5 15.099999999999998 C 52.2 15.799999999999997 53.8 16.7 55.3 17.799999999999997 C 62.3 22.8 66.5 30.8 66.5 39.4 z" stroke-linecap="round" />
</g>
		<g transform="matrix(1 0 0 1 -0.05 -11.35)" id="NifcHHwWfSf85m6RuggrT"  >
<path style="stroke: none; stroke-width: 1; stroke-dasharray: none; stroke-linecap: butt; stroke-dashoffset: 0; stroke-linejoin: miter; stroke-miterlimit: 4; fill: rgb(179,181,179); fill-rule: nonzero; opacity: 1;" vector-effect="non-scaling-stroke"  transform=" translate(-39.95, -28.65)" d="M 36.6 40.3 L 36.6 17 C 36.6 15.4 37.9 14.2 39.4 14.2 L 40.5 14.2 C 42.1 14.2 43.3 15.5 43.3 17 L 43.3 40.3 C 43.3 41.9 42 43.099999999999994 40.5 43.099999999999994 L 39.4 43.099999999999994 C 37.9 43.1 36.6 41.9 36.6 40.3 z" stroke-linecap="round" />
</g>
</g>
</g>
<g transform="matrix(1.26 0 0 1.21 253.12 225.41)" id="prgQcmwRxdkjDbs7ZqsJA"  >
<path style="stroke: rgb(0,0,0); stroke-width: 0; stroke-dasharray: none; stroke-linecap: butt; stroke-dashoffset: 0; stroke-linejoin: miter; stroke-miterlimit: 4; fill: rgb(0,0,0); fill-rule: nonzero; opacity: 0.54;" vector-effect="non-scaling-stroke"  transform=" translate(0, 0)" d="M -50 -50 L 50 -50 L 50 50 L -50 50 z" stroke-linecap="round" />
</g>
<g transform="matrix(1.16 0 0 1.16 251.16 226.07)" id="JKwrgHZwUUYa5PKTlelKg"  >
<path style="stroke: none; stroke-width: 1; stroke-dasharray: none; stroke-linecap: butt; stroke-dashoffset: 0; stroke-linejoin: miter; stroke-miterlimit: 4; fill: rgb(179,181,179); fill-rule: nonzero; opacity: 0.31;" vector-effect="non-scaling-stroke"  transform=" translate(0, 0)" d="M -5.60511 22.81767 C -6.50511 23.71767 -8.00511 23.81767 -8.805109999999999 22.91767 L -9.805109999999999 21.91767 C -9.805109999999999 22.017670000000003 -10.505109999999998 22.91767 -10.905109999999999 23.217670000000002 L -25.205109999999998 37.51767 C -27.205109999999998 39.51767 -30.30511 39.617670000000004 -32.105109999999996 37.717670000000005 L -37.70511 32.117670000000004 C -39.505109999999995 30.317670000000003 -39.40511 27.217670000000005 -37.505109999999995 25.217670000000005 L -23.305109999999996 11.017670000000006 C -22.905109999999997 10.617670000000006 -22.005109999999995 10.017670000000006 -22.005109999999995 9.917670000000006 L -23.005109999999995 8.917670000000006 C -23.905109999999993 8.017670000000006 -23.805109999999996 6.617670000000007 -22.905109999999993 5.717670000000006 C -22.005109999999995 4.817670000000006 -20.505109999999995 4.817670000000006 -19.705109999999994 5.617670000000007 L -14.305109999999994 11.017670000000006 L 20.994890000000005 -24.582329999999995 L 22.894890000000004 -30.082329999999995 L 35.994890000000005 -39.08233 L 38.994890000000005 -36.08233 L 29.994890000000005 -22.982329999999997 L 24.594890000000007 -20.982329999999997 L -11.005109999999995 14.217670000000005 L -5.6051099999999945 19.617670000000004 C -4.705109999999994 20.517670000000003 -4.705109999999994 21.917670000000005 -5.6051099999999945 22.817670000000003 z" stroke-linecap="round" />
</g>
<g transform="matrix(1.16 0 0 1.16 250 225)" id="N0mjwcgOIiGRxbQ6dMSmG"  >
<path style="stroke: none; stroke-width: 1; stroke-dasharray: none; stroke-linecap: butt; stroke-dashoffset: 0; stroke-linejoin: miter; stroke-miterlimit: 4; fill: rgb(179,181,179); fill-rule: nonzero; opacity: 0.18;" vector-effect="non-scaling-stroke"  transform=" translate(-40, -40)" d="M 77.4 56.5 C 81 63.1 79.80000000000001 71.4 79.80000000000001 71.4 L 70.9 59.7 L 61.800000000000004 61.800000000000004 L 59.7 70.9 L 71.4 79.80000000000001 C 71.4 79.80000000000001 63.10000000000001 81.00000000000001 56.50000000000001 77.4 C 49.10000000000001 73.4 53.10000000000001 66.80000000000001 51.10000000000001 63.2 C 32.70000000000001 37.2 16.80000000000001 28.900000000000006 16.80000000000001 28.900000000000006 C 16.80000000000001 28.900000000000006 6.600000000000012 30.900000000000006 2.600000000000012 23.500000000000007 C -1 16.9 0.2 8.6 0.2 8.6 L 9.1 20.299999999999997 L 18.2 18.199999999999996 L 20.3 9.099999999999996 L 8.6 0.2 C 8.6 0.2 16.9 -1 23.5 2.6 C 30.9 6.6 28.9 16.8 28.9 16.8 C 28.9 16.8 37.599999999999994 33.5 63.199999999999996 51.099999999999994 C 66.6 53.5 73.4 49.1 77.4 56.5 z" stroke-linecap="round" />
</g>
<g transform="matrix(1 0 0 1 262.14 246.1)" style="" id="qR9aS54d8EkqB2KCzYnY1"  >
		<text xml:space="preserve" font-family="Open Sans" font-size="20" font-style="normal" font-weight="700" line-height="1" style="stroke: none; stroke-width: 1; stroke-dasharray: none; stroke-linecap: butt; stroke-dashoffset: 0; stroke-linejoin: miter; stroke-miterlimit: 4; fill: rgb(108,59,244); fill-rule: nonzero; opacity: 1; white-space: pre;" ><tspan x="-62.45" y="-42.33" style="white-space: pre; ">LEGEND PC </tspan><tspan x="-62.45" y="-19.73" >DESIGN</tspan><tspan x="-62.45" y="2.87" >COMPANY</tspan></text>
</g>
<g transform="matrix(1 0 0 1 185.58 308.86)" id="m5Xm3NnOyITCmjJ2OW5M1"  >
<path style="stroke: rgb(0,0,0); stroke-width: 1; stroke-dasharray: none; stroke-linecap: butt; stroke-dashoffset: 0; stroke-linejoin: miter; stroke-miterlimit: 4; fill: rgb(255,255,255); fill-opacity: 0; fill-rule: nonzero; opacity: 1;" vector-effect="non-scaling-stroke"  transform=" translate(0, 0)" d="M -10.55292 -5.34383 L -10.55292 5.34382 L 1.5755499999999998 5.34382 L 10.552909999999999 -5.34383" stroke-linecap="round" />
</g>
<g transform="matrix(-1 0 0 1 318.88 308.86)" id="kgTBpp4_20qTHc43GqWyz"  >
<path style="stroke: rgb(0,0,0); stroke-width: 1; stroke-dasharray: none; stroke-linecap: butt; stroke-dashoffset: 0; stroke-linejoin: miter; stroke-miterlimit: 4; fill: rgb(255,255,255); fill-opacity: 0; fill-rule: nonzero; opacity: 1;" vector-effect="non-scaling-stroke"  transform=" translate(0, 0)" d="M -10.55292 -5.34383 L -10.55292 5.34382 L 1.5755499999999998 5.34382 L 10.552909999999999 -5.34383" stroke-linecap="round" />
</g>
<g transform="matrix(0.93 0 0 1 341.26 295.47)" id="D2-rhyJfrQkBdD_zN2gim"  >
<path style="stroke: rgb(0,0,0); stroke-width: 1; stroke-dasharray: none; stroke-linecap: butt; stroke-dashoffset: 0; stroke-linejoin: miter; stroke-miterlimit: 4; fill: rgb(255,255,255); fill-opacity: 0; fill-rule: nonzero; opacity: 1;" vector-effect="non-scaling-stroke"  transform=" translate(0, 0)" d="M 7.43399 -5.8548 L 7.43399 5.8548 L -7.434000000000001 5.8548" stroke-linecap="round" />
</g>
<g transform="matrix(1 0 0 1 334.13 300.6)" id="js94jk0IVg4efVFZzFs6n"  >
<path style="stroke: rgb(0,0,0); stroke-width: 1; stroke-dasharray: none; stroke-linecap: butt; stroke-dashoffset: 0; stroke-linejoin: miter; stroke-miterlimit: 4; fill: rgb(255,255,255); fill-opacity: 0; fill-rule: nonzero; opacity: 1;" vector-effect="non-scaling-stroke"  transform=" translate(0, 0)" d="M 0.25 1.2258 L -0.25 -1.2258" stroke-linecap="round" />
</g>
</svg>